<?xml version="1.0" standalone="no"?>
<!DOCTYPE svg PUBLIC "-//W3C//DTD SVG 20010904//EN"
 "http://www.w3.org/TR/2001/REC-SVG-20010904/DTD/svg10.dtd">
<svg version="1.0" xmlns="http://www.w3.org/2000/svg"
 width="700.000000pt" height="700.000000pt" viewBox="0 0 700.000000 700.000000"
 preserveAspectRatio="xMidYMid meet">
<metadata>
Created by potrace 1.14, written by Peter Selinger 2001-2017
</metadata>
<g transform="translate(0.000000,700.000000) scale(0.100000,-0.100000)"
fill="#000000" stroke="none">
<path d="M3029 6996 c-2 -2 -24 -6 -49 -9 -126 -16 -289 -87 -409 -177 -129
-98 -222 -215 -291 -364 -71 -156 -86 -258 -83 -546 1 -107 3 -397 5 -645 l3
-449 -685 -2 c-485 0 -703 -4 -747 -13 -254 -49 -479 -200 -621 -416 -48 -72
-115 -224 -126 -285 -3 -14 -9 -47 -15 -75 -16 -83 -13 -954 4 -1045 70 -359
321 -637 670 -738 101 -30 195 -38 415 -35 725 8 1090 10 1091 4 1 -3 2 -303
4 -666 1 -363 5 -688 9 -722 41 -339 303 -655 631 -762 143 -47 186 -50 684
-49 397 1 465 3 535 18 183 41 328 117 457 242 161 157 241 310 285 548 7 33
6 310 0 1070 l-3 316 656 0 c361 0 685 4 721 7 398 40 752 375 817 775 10 58
11 979 1 1044 -10 66 -61 215 -98 284 -142 265 -404 447 -707 491 -44 6 -369
6 -1100 -1 -150 -1 -274 0 -274 3 -1 3 -2 308 -4 676 -1 369 -5 690 -9 715
-55 353 -285 634 -617 755 -134 49 -196 54 -690 54 -251 0 -458 -1 -460 -3z
m989 -1563 c8 -21 20 -51 27 -68 8 -16 80 -196 160 -400 81 -203 153 -383 160
-400 7 -16 79 -196 160 -400 80 -203 152 -383 160 -400 7 -16 26 -61 40 -100
15 -38 31 -79 36 -90 5 -11 40 -101 80 -200 39 -99 80 -200 91 -225 l20 -46
816 1 c450 1 823 -1 829 -3 12 -4 11 -25 -2 -91 -6 -32 -44 -122 -68 -164 -33
-56 -111 -134 -140 -138 -12 -2 -380 -4 -818 -3 l-796 0 -42 22 c-23 12 -53
35 -66 50 -13 15 -155 356 -316 760 -238 596 -295 729 -302 710 -7 -20 -405
-1405 -507 -1768 -189 -670 -276 -970 -280 -970 -3 0 -27 53 -54 118 -28 64
-62 144 -77 177 -14 33 -50 116 -79 185 -29 69 -61 145 -72 170 -11 25 -52
119 -90 210 -38 91 -78 183 -88 205 -10 22 -37 85 -60 140 -23 55 -48 114 -56
130 -7 17 -74 174 -149 349 -75 176 -138 323 -141 328 -3 4 -75 -81 -161 -190
-296 -374 -355 -447 -371 -467 -9 -11 -35 -42 -56 -69 -75 -92 -52 -89 -669
-90 l-537 -1 -29 27 c-82 77 -129 155 -160 266 -33 119 -96 106 550 107 310 0
569 3 576 8 6 4 91 109 189 235 97 125 196 250 218 278 23 28 52 66 66 84 14
18 30 38 35 44 6 6 33 40 60 76 44 58 227 292 258 330 7 8 34 43 60 78 27 34
51 62 55 62 4 0 42 -78 84 -173 66 -147 434 -959 511 -1127 13 -30 35 -77 47
-105 65 -147 77 -170 83 -150 14 47 190 663 197 690 4 17 78 275 164 575 86
300 167 586 181 635 15 50 73 254 131 454 57 201 104 371 104 379 0 25 24 -3
38 -45z"/>
</g>
</svg>
