<svg xmlns="http://www.w3.org/2000/svg" fill-rule="evenodd" stroke-linejoin="round" stroke-miterlimit="2" viewBox="0 0 1000 1000"><path fill="url(#a)" fill-rule="nonzero" d="M866.364 313.571c73.276.092 133.544 60.36 133.636 133.635v105.588l-.004.783v.074l-.001.041-.008.727-.001.089-.001.09-.012.672-.002.094-.004.179-.004.163-.006.235c-.521 20.608-5.797 40.12-14.76 57.471l-.23.443-.072.138-.044.085-.052.098-.096.183-.187.354-.043.081-.013.025-.342.639-.026.048-.048.089-.145.268-.149.272-.044.082-.024.044-.359.651-.007.013-.022.038-.218.393-.118.209-.036.065-.032.055-.746 1.307-.023.041-.031.053-.141.243-.225.385-.013.023-.4.676-.007.012-.016.027-.204.343-.175.289-.02.034-.012.02-.813 1.33-.016.026-.016.026-.836 1.331-.014.023-1.305 2.011-.004.006-.894 1.335-.002.002a136.054 136.054 0 01-36.162 36.149l-.016.011-1.33.89-.002.002-2.012 1.304-.027.017-1.338.839-.017.01-.019.013-1.353.825-.355.214-.327.195-.023.013-1.356.795-.029.017-.025.015-1.355.772-.023.013-.032.018-1.374.762-.39.212-.293.158-.035.019-.023.012-1.366.726-.04.021-.04.02-1.37.707-.029.014-.044.023-.289.146-.359.181-.031.015-.014.007-.703.349-.423.208-.262.127-.051.025-.038.018-1.378.659-.047.022-.054.025-.227.107-.455.212-.706.324-.03.014-.056.025-.309.141-.32.144-.055.024-.029.013-.706.314-.455.2-.234.101-.062.028-.053.023-1.391.593-.052.022-.068.028-.244.102-.397.165-.042.017-.016.006-.706.289-.032.013-.064.026-.332.134-.287.114-.072.029-.044.018-.71.28-.486.189-.207.079-.071.028-.067.025-1.405.529-.054.021-.081.029-.262.097-.354.129-.07.025-.03.011-.709.255-.029.011-.072.025-.357.126-.258.09-.084.03-.059.02-1.414.484-.075.025-.08.027-.207.069-.448.148-.042.014-.012.004-.713.231-.053.018-.091.029-.283.091-.319.1-.088.028-.044.014-.713.222-.026.008-.073.022-.389.119-.232.07-.091.028-.072.021-1.428.42-.076.022-.093.027-.224.064-.398.113-.076.021-.025.007-.716.199-.051.014-.099.027-.307.083-.288.078-.101.027-.057.015-.719.19-.02.005-.068.018-.428.11-.208.053-.095.025-.084.021-.175.044-.522.13-.023.006-.724.177-.074.018-.103.024-.245.059-.359.085-.097.023-.038.009-.721.166-.046.011-.103.023-.335.076-.262.057-.107.025-.071.015-.725.158-.014.003-.053.011-.476.101-.187.039-.094.02-.097.019-.193.041-.46.093-.063.013-.017.003-.727.144-.07.014-.112.021-.268.052-.326.062-.11.021-.052.01-.727.134-.039.007-.103.019-.368.066-.239.042-.109.02-.082.014-.735.126-.568.094-.168.027-.091.016-.106.016-.214.035-.413.065-.091.015-.029.004-.733.112-.064.009-.117.017-.295.044-.299.043-.117.017-.062.009-.736.102-.031.005-.095.012-.409.055-.217.029-.109.014-.093.012-.165.021-.554.07-.024.003-.743.089-.087.01-.114.013-.236.028-.376.042-.109.012-.04.005-.74.079-.056.006-.119.012-.325.033-.275.027-.119.012-.074.007-.744.07-.022.002-.079.007-.458.041-.198.017-.106.009-.101.009-.187.015-.489.04-.065.005-.015.001-.749.056-.079.006-.12.008-.262.019-.345.023-.118.008-.052.003-.747.047-.048.003-.116.006-.36.021-.252.013-.12.007-.083.004-.755.037-.011.001-.05.002-.52.023-.18.007-.1.004-.11.004-.209.009-.441.015-.092.003-.026.001-.755.023-.072.002-.123.003-.29.008-.318.006-.123.003-.062.001-.756.014h-.037l-.108.001-.401.005-.232.002-.116.001-.093.001-.765.003H684.75l1.567 179.991c-.061 72.95-59.819 133.018-132.666 133.576l-.857.004H447.206c-73.256-.061-133.518-60.323-133.579-133.58V684.75l-179.991 1.623a96.03 96.03 0 01-.765-.003l-.093-.001-.116-.001-.232-.002-.401-.005-.108-.001h-.037l-.756-.014-.062-.001-.123-.003-.318-.006-.29-.008-.123-.003-.072-.002-.755-.023-.026-.001-.092-.003-.441-.015-.209-.009-.11-.004-.1-.004-.18-.007-.52-.023-.05-.002-.011-.001-.755-.037-.083-.004-.12-.007-.252-.013-.36-.021-.116-.006-.048-.003-.747-.047-.052-.003-.118-.008-.345-.023-.262-.019-.12-.008-.079-.006-.749-.056-.015-.001-.065-.005-.489-.04-.187-.015-.101-.009-.106-.009-.198-.017-.458-.041-.079-.007-.022-.002-.744-.07-.074-.007-.119-.012-.275-.027-.325-.033-.119-.012-.056-.006-.74-.079-.04-.005-.109-.012-.376-.042-.236-.028-.114-.013-.087-.01-.743-.089-.578-.073-.165-.021-.093-.012-.109-.014-.217-.029-.409-.055-.095-.012-.031-.005-.736-.102-.062-.009-.117-.017-.299-.043-.295-.044-.117-.017-.064-.009-.733-.112-.029-.004-.091-.015-.413-.065-.214-.035-.106-.016-.091-.016-.168-.027-.541-.09-.027-.004-.735-.126-.082-.014-.109-.02-.239-.042-.368-.066-.103-.019-.039-.007-.727-.134-.052-.01-.11-.021-.326-.062-.268-.052-.112-.021-.07-.014-.727-.144-.017-.003-.063-.013-.46-.093-.193-.041-.097-.019-.094-.02-.187-.039-.476-.101-.053-.011-.014-.003-.725-.158-.071-.015-.107-.025-.262-.057-.335-.076-.103-.023-.046-.011-.721-.166-.038-.009-.097-.023-.359-.085-.245-.059-.103-.024-.074-.018-.724-.177-.545-.136-.175-.044-.084-.021-.095-.025-.208-.053-.428-.11-.068-.018-.02-.005-.719-.19-.057-.015-.101-.027-.288-.078-.307-.083-.099-.027-.051-.014-.716-.199-.025-.007-.076-.021-.398-.113-.224-.064-.093-.027-.076-.022-1.428-.42-.072-.021-.091-.028-.232-.07-.389-.119-.073-.022-.026-.008-.713-.222-.044-.014-.088-.028-.319-.1-.283-.091-.091-.029-.053-.018-.713-.231-.012-.004-.042-.014-.448-.148-.207-.069-.08-.027-.075-.025-1.414-.484-.059-.02-.084-.03-.258-.09-.357-.126-.072-.025-.029-.011-.709-.255-.03-.011-.07-.025-.354-.129-.262-.097-.081-.029-.054-.021-1.405-.529-.067-.025-.071-.028-.207-.079-.466-.182-.02-.007-.71-.28-.044-.018-.072-.029-.287-.114-.332-.134-.064-.026-.032-.013-.706-.289-.016-.006-.042-.017-.397-.165-.244-.102-.068-.028-.052-.022-1.391-.593-.053-.023-.062-.028-.234-.101-.427-.187-.028-.013-.706-.314-.029-.013-.055-.024-.32-.144-.309-.141-.056-.025-.03-.014-.706-.324-.455-.212-.227-.107-.054-.025-.047-.022-1.378-.659-.038-.018-.051-.025-.262-.127-.395-.194-.028-.014-.703-.349-.014-.007-.031-.015-.359-.181-.289-.146-.044-.023-.029-.014-1.37-.707-.04-.02-.04-.021-1.366-.726-.023-.012-.035-.019-.293-.158-.367-.2-.023-.012-1.374-.762-.032-.018-.023-.013-1.355-.772-.025-.015-.029-.017-1.356-.795-.35-.208-.342-.205-.013-.009-1.353-.825-.019-.013-.017-.01-1.338-.839-.027-.017-2.012-1.304-.002-.002-1.33-.89-.016-.011a136.025 136.025 0 01-36.162-36.149l-.002-.002-.894-1.335-.004-.006-1.305-2.011-.014-.023-.836-1.331-.016-.026-.016-.026-.813-1.33-.012-.02-.02-.034-.175-.289-.204-.343-.016-.027-.007-.012-.4-.676-.238-.408-.141-.243-.031-.053-.023-.041-.746-1.307-.032-.055-.036-.065-.118-.209-.218-.393-.022-.038-.007-.013-.359-.651-.024-.044-.044-.082-.149-.272-.145-.268-.048-.089-.026-.048-.342-.639-.013-.025-.043-.081-.187-.354-.096-.183-.052-.098-.044-.085-.072-.138-.23-.443C5.839 596.066.563 576.551.043 555.941l-.006-.235-.004-.163-.004-.179-.002-.094-.012-.672-.001-.09-.001-.089-.008-.727-.001-.041v-.074L0 552.794V447.206c.092-73.275 60.36-133.543 133.636-133.635H315.25l-1.623-179.935C313.688 60.379 373.95.117 447.206.056h105.588l.858.003c72.867.529 132.66 60.606 132.721 133.577V315.25l179.991-1.679zm77.604 243.104H707.065L570.08 214.139 456.732 610.856 354.167 384.479 219.321 556.675H56.088c1.18 22.82 12.394 43.166 29.275 56.675H234.51a28.363 28.363 0 0023.577-12.639l83.482-105.195L465.69 785.857l113.346-396.713 82.576 206.41a28.39 28.39 0 0026.297 17.796h226.784c16.88-13.507 28.096-33.853 29.275-56.675z" transform="translate(0 -.056)"/><defs><linearGradient id="a" x1="0" x2="1000" y1="500" y2="500" gradientUnits="userSpaceOnUse"><stop offset="0" stop-color="#005a63"/><stop offset="1" stop-color="#86e4da"/></linearGradient></defs></svg>