<svg xmlns="http://www.w3.org/2000/svg" viewBox="0 0 900 600"><path fill="#fff" d="M0 0h900v600H0z"/><path fill="#e3f9f6" d="M900 432.7c-65.3-28.7-130.5-57.3-198-89.8-67.5-32.4-137.2-68.8-176.7-126.6s-48.7-137-58-216.3H900z"/><path fill="#a8ebe3" d="M900 288.4c-43.5-19-87-38.1-132-59.8-45-21.6-91.5-45.8-117.8-84.4-26.3-38.5-32.5-91.4-38.6-144.2H900z"/><path fill="#86e4da" d="M900 144.2c-21.8-9.5-43.5-19.1-66-29.9-22.5-10.8-45.7-22.9-58.9-42.2-13.2-19.3-16.2-45.7-19.3-72.1H900z"/><g><path fill="#e3f9f6" d="M0 167.3c66.3 26.8 132.6 53.6 200 86.3 67.4 32.7 135.7 71.3 174.7 130.1 39 58.7 48.5 137.5 58 216.3H0z"/><path fill="#a8ebe3" d="M0 311.6c44.2 17.8 88.4 35.7 133.3 57.5 44.9 21.8 90.5 47.5 116.5 86.7 26 39.1 32.3 91.7 38.6 144.2H0z"/><path fill="#86e4da" d="M0 455.8c22.1 8.9 44.2 17.8 66.7 28.7 22.4 10.9 45.2 23.8 58.2 43.4 13 19.6 16.2 45.8 19.3 72.1H0z"/></g></svg>